<?xml version="1.0" standalone="no"?>
<!DOCTYPE svg PUBLIC "-//W3C//DTD SVG 20010904//EN"
 "http://www.w3.org/TR/2001/REC-SVG-20010904/DTD/svg10.dtd">
<svg version="1.0" xmlns="http://www.w3.org/2000/svg"
 width="3000.000000pt" height="3000.000000pt" viewBox="0 0 3000.000000 3000.000000"
 preserveAspectRatio="xMidYMid meet">
<metadata>
Created by potrace 1.14, written by Peter Selinger 2001-2017
</metadata>
<g transform="translate(0.000000,3000.000000) scale(0.100000,-0.100000)"
fill="#000000" stroke="none">
<path d="M11469 29433 c-254 -366 -265 -383 -387 -558 l-104 -149 24 -21 c14
-11 121 -87 239 -168 118 -81 346 -240 508 -352 l294 -204 206 297 c276 397
311 448 378 545 31 45 68 97 81 115 14 18 23 34 21 35 -2 2 -49 34 -104 72
-55 38 -129 89 -165 114 -36 25 -218 151 -405 281 -187 130 -352 244 -366 254
l-27 17 -193 -278z"/>
<path d="M9663 29379 c6 -62 10 -76 43 -144 31 -66 77 -120 125 -151 53 -33
60 -31 44 16 -47 134 -145 293 -197 321 -20 11 -20 9 -15 -42z"/>
<path d="M16638 29126 c-31 -23 -38 -60 -20 -97 45 -89 176 -24 137 68 -7 16
-20 33 -30 37 -27 10 -69 6 -87 -8z"/>
<path d="M14734 28847 c-89 -49 -26 -178 71 -141 23 9 46 60 39 88 -12 47 -69
75 -110 53z"/>
<path d="M11078 28218 c-13 -18 -77 -112 -142 -208 -64 -96 -173 -257 -241
-357 l-124 -183 32 0 c52 0 130 -27 176 -61 50 -35 86 -106 98 -188 l8 -54
131 184 c72 101 200 285 284 407 l152 224 -4 53 c-9 102 -86 175 -212 202
-102 21 -130 18 -158 -19z"/>
<path d="M12685 28182 c-49 -47 -175 -163 -291 -267 -12 -11 -66 -60 -119
-110 -54 -49 -103 -94 -110 -100 -6 -5 -31 -29 -56 -52 l-45 -43 -209 65
c-116 36 -214 65 -219 65 -4 0 16 -16 45 -37 30 -20 148 -101 262 -181 115
-80 212 -141 217 -136 4 5 77 108 160 229 84 121 212 306 285 410 134 193 149
215 143 215 -2 0 -30 -26 -63 -58z"/>
<path d="M20714 27860 c-57 -22 -71 -94 -25 -133 48 -40 111 -19 125 43 13 53
-50 109 -100 90z"/>
<path d="M10030 27406 c-116 -22 -184 -65 -221 -138 -15 -30 -24 -38 -37 -33
-31 13 -182 15 -210 3 -68 -29 -97 -74 -107 -168 -11 -96 -28 -126 -94 -160
-99 -50 -125 -92 -221 -360 -47 -132 -120 -350 -120 -359 0 -2 33 0 73 4 136
15 282 20 352 14 82 -8 107 -21 247 -122 212 -154 299 -203 389 -219 53 -9 63
-8 113 15 79 36 104 79 114 192 8 83 10 90 38 109 62 44 123 117 140 169 17
51 19 88 14 307 -5 246 -35 307 -179 364 -74 29 -232 65 -313 72 -43 4 -78 10
-78 14 0 29 348 34 434 6 147 -48 231 -131 277 -276 28 -87 46 -241 43 -356
-4 -106 -8 -106 70 -10 90 112 122 205 111 327 -14 166 -50 329 -87 403 -34
66 -65 90 -173 129 -194 69 -437 101 -575 73z m7 -666 c60 -26 131 -95 143
-140 13 -49 20 -210 9 -210 -5 0 -9 4 -9 10 0 18 -73 91 -136 136 -82 59 -154
90 -239 103 -38 6 -81 13 -95 15 -14 3 -40 5 -59 5 l-35 1 34 25 c46 34 128
63 198 71 31 3 59 7 61 9 8 8 88 -8 128 -25z"/>
<path d="M16501 27210 c-42 -98 -48 -204 -17 -298 26 -78 42 -84 55 -20 25
117 30 215 17 285 -7 36 -24 83 -30 83 -2 0 -13 -23 -25 -50z"/>
<path d="M11102 26661 c-29 -8 -82 -58 -83 -79 -2 -31 3 -47 22 -68 10 -11 19
-30 19 -42 0 -66 -80 -162 -168 -202 -29 -13 -52 -26 -52 -30 0 -12 154 -43
215 -43 111 0 184 34 211 99 20 47 17 152 -5 222 -34 112 -89 161 -159 143z"/>
<path d="M17995 26638 c-50 -27 -60 -80 -21 -117 52 -49 136 -1 121 69 -5 24
-16 35 -41 46 -39 16 -34 16 -59 2z"/>
<path d="M14813 26209 c-201 -68 -628 -340 -765 -487 -43 -46 -48 -56 -49 -99
-2 -95 3 -670 6 -735 1 -38 0 -68 -4 -67 -3 0 -25 27 -48 60 -35 48 -48 59
-71 59 -26 0 -69 -22 -84 -44 -23 -32 -2 -146 67 -371 58 -189 57 -185 50
-185 -3 0 -29 17 -58 38 -234 171 -549 291 -900 341 -124 18 -456 23 -522 7
-174 -41 -298 -89 -460 -181 -108 -61 -256 -169 -339 -247 -31 -30 -46 -34
-61 -19 -27 26 -156 32 -310 16 -157 -17 -560 -113 -713 -171 -102 -38 -125
-61 -182 -179 -57 -121 -90 -160 -200 -240 -63 -47 -80 -65 -81 -85 -6 -317
-109 -557 -275 -639 -99 -50 -254 -17 -419 87 -93 58 -264 234 -344 352 l-64
95 71 6 c159 15 294 82 379 188 104 129 176 343 192 570 8 126 4 342 -7 353
-14 14 -267 -131 -446 -255 -219 -151 -373 -297 -463 -439 -47 -75 -52 -103
-32 -186 65 -273 173 -469 358 -652 117 -116 217 -188 360 -257 136 -65 323
-124 446 -139 22 -3 46 -7 52 -9 68 -22 543 -22 788 0 28 3 77 7 110 10 33 3
80 8 105 10 25 3 72 7 105 10 33 3 96 10 140 15 105 14 140 18 200 25 28 4 57
8 65 10 8 2 35 7 60 10 25 3 56 8 70 10 14 2 45 7 70 10 148 20 400 62 407 68
1 2 -113 34 -254 72 -284 75 -1145 327 -1328 389 -5 2 71 3 170 3 168 0 351 9
385 18 8 2 49 6 90 10 41 3 84 8 95 10 11 3 36 7 56 9 126 18 461 94 475 109
3 2 -38 134 -90 293 -53 158 -94 289 -92 291 6 6 174 -142 281 -246 145 -142
244 -252 345 -386 45 -60 84 -112 86 -114 2 -2 24 6 49 18 26 12 142 53 258
92 291 97 498 199 770 380 49 33 90 59 92 59 8 0 -7 -93 -22 -150 -29 -103
-113 -259 -190 -353 -25 -31 -28 -24 -12 43 11 46 16 226 7 235 -3 3 -49 -29
-104 -72 -334 -259 -561 -494 -595 -616 -21 -74 -16 -472 6 -588 3 -13 8 -40
11 -59 58 -337 225 -667 459 -910 35 -36 66 -76 70 -90 15 -54 120 -228 131
-217 2 2 -1 28 -6 58 -11 56 -16 311 -7 364 3 17 8 50 12 75 28 189 123 435
229 593 35 51 47 80 51 117 3 28 7 73 10 101 35 338 146 681 312 961 53 89
140 188 165 188 30 0 32 -62 8 -183 -35 -177 -29 -242 37 -405 51 -128 52
-131 35 -262 -19 -148 -20 -164 -27 -345 -8 -203 4 -275 66 -405 80 -169 179
-299 355 -470 195 -188 334 -294 698 -528 56 -36 49 -38 -44 -16 -36 9 -69 17
-75 18 -200 47 -638 246 -834 379 -31 21 -45 26 -51 17 -12 -20 -3 -220 15
-305 21 -103 60 -224 97 -299 15 -32 27 -61 25 -63 -8 -7 -84 56 -115 94 -37
47 -75 121 -93 180 -9 34 -21 48 -54 67 -87 51 -157 160 -208 321 -26 84 -52
205 -61 290 -4 28 -8 65 -11 84 -29 215 -18 710 24 1069 4 34 4 62 1 62 -9 0
-47 -147 -74 -280 -19 -98 -29 -157 -51 -325 -30 -231 -33 -254 -40 -330 -3
-33 -8 -76 -10 -95 -3 -19 -7 -60 -10 -90 -6 -57 -11 -103 -21 -180 -5 -39
-10 -77 -31 -205 -22 -143 -102 -276 -360 -600 -79 -99 -158 -208 -175 -242
-28 -57 -30 -68 -24 -129 4 -37 17 -89 31 -118 14 -29 25 -56 25 -60 0 -5 8
-20 19 -34 15 -23 17 -37 11 -87 -8 -65 -5 -471 3 -520 3 -16 9 -64 12 -105 4
-41 9 -88 11 -105 2 -16 7 -52 10 -80 10 -82 54 -335 70 -405 9 -36 18 -76 20
-90 3 -14 7 -33 10 -42 3 -10 7 -28 10 -41 9 -53 66 -225 93 -282 38 -80 53
-137 46 -176 -3 -18 -32 -82 -65 -143 -95 -180 -108 -266 -47 -306 26 -18 201
-23 287 -9 30 5 105 11 165 13 99 4 129 1 300 -35 105 -22 214 -44 243 -49 30
-5 61 -11 70 -14 10 -3 33 -7 52 -10 19 -3 46 -8 60 -11 20 -4 14 6 -36 58
-82 84 -91 94 -205 234 l-99 121 48 16 c60 20 221 54 292 61 117 12 345 7 430
-10 14 -2 41 -7 60 -10 19 -3 89 -19 155 -35 66 -16 141 -32 168 -35 57 -7
262 -8 297 -1 14 2 64 10 113 16 93 13 114 24 69 35 -65 16 -227 82 -344 141
-221 109 -408 245 -541 393 -70 78 -139 173 -131 180 2 3 48 3 102 2 218 -7
1026 1 1467 14 66 2 189 5 273 6 83 2 152 6 152 9 0 3 -28 14 -62 24 -88 26
-351 134 -501 206 -70 33 -129 60 -133 60 -3 0 -38 -19 -77 -43 -40 -23 -88
-49 -107 -58 -19 -9 -46 -21 -60 -28 -61 -28 -154 -49 -214 -48 -51 2 -70 7
-105 31 -47 33 -120 126 -206 266 -153 247 -235 349 -314 386 -39 19 -152 25
-221 12 -219 -40 -336 -71 -580 -150 -85 -28 -235 -81 -332 -119 -98 -37 -192
-70 -210 -72 -85 -10 -177 38 -203 107 -37 97 24 189 204 304 62 40 238 130
359 185 l82 38 -28 37 c-16 20 -49 66 -74 102 -92 132 -199 226 -319 279 -36
17 -38 19 -22 33 10 9 45 26 78 38 77 30 259 37 350 14 108 -26 251 -26 336 1
12 4 25 -8 45 -42 35 -61 97 -145 149 -202 52 -57 200 -201 245 -237 19 -16
42 -35 50 -43 39 -38 311 -235 440 -319 80 -52 161 -105 181 -118 19 -13 38
-24 42 -24 4 0 36 -18 72 -40 36 -22 68 -40 71 -40 3 0 28 15 57 33 131 82
385 186 672 275 201 63 655 174 800 196 22 4 47 8 55 11 8 2 26 6 40 9 478 89
990 289 1480 579 96 57 324 205 386 251 23 17 52 38 64 46 34 23 77 56 197
152 115 93 140 141 149 298 7 108 -6 156 -51 180 -27 15 -72 17 -97 6 -14 -6
-18 -1 -22 31 -22 151 -63 237 -153 328 -76 75 -222 147 -355 175 -51 11 -96
20 -100 20 -3 0 -4 -81 -1 -180 3 -99 3 -180 0 -180 -12 0 -58 91 -81 161 -14
41 -39 155 -55 254 -41 239 -38 225 -68 350 -43 184 -88 286 -201 460 -187
289 -508 597 -750 719 -159 81 -338 92 -483 32 -13 -6 -30 14 -74 81 -110 166
-319 350 -480 423 -105 48 -296 102 -310 88 -2 -2 33 -30 78 -63 89 -64 319
-242 352 -272 11 -10 32 -28 47 -39 51 -40 183 -159 259 -234 133 -133 194
-219 206 -294 5 -33 2 -39 -54 -93 -96 -94 -322 -201 -662 -313 -79 -26 -147
-54 -152 -61 -4 -8 -10 -39 -14 -69 -12 -94 -35 -223 -52 -282 -16 -60 -20
-63 -88 -74 -53 -7 -65 -21 -123 -139 -65 -131 -112 -171 -227 -195 -35 -7
-67 -21 -81 -35 -13 -13 -56 -90 -95 -170 -96 -196 -156 -253 -324 -305 -86
-26 -138 -27 -280 -7 -124 18 -189 26 -223 26 -20 1 -17 8 38 88 33 47 60 91
60 97 0 6 -6 23 -14 37 -64 123 -116 423 -110 629 1 41 9 122 18 180 8 58 18
148 21 200 l6 95 -49 -102 c-52 -105 -162 -296 -168 -290 -2 2 14 70 35 153
78 296 141 545 141 552 0 32 -110 -180 -180 -349 -55 -131 -126 -270 -160
-310 l-20 -24 5 115 c4 125 10 201 29 358 7 56 12 102 12 102 -1 0 -29 -9 -62
-19 -34 -11 -81 -22 -105 -26 -24 -3 -52 -8 -61 -11 -33 -10 -18 13 46 73 96
90 207 156 267 159 27 1 68 12 92 23 41 20 177 142 177 159 -1 4 -18 19 -38
33 -40 27 -112 126 -112 153 0 8 9 17 20 21 54 17 71 15 107 -12 49 -38 141
-40 190 -5 31 22 91 127 80 138 -3 4 -20 2 -36 -4 -47 -17 -55 7 -56 181 l-1
148 -32 19 c-39 24 -50 61 -43 152 1 15 5 15 47 -3 102 -46 191 -21 351 98 97
72 131 85 229 87 l74 1 1 185 c0 102 2 210 4 240 2 30 7 98 10 150 7 109 21
211 36 257 16 49 62 54 151 18 13 -5 19 8 37 87 28 126 30 139 57 364 l6 52
-54 40 c-153 116 -512 255 -853 331 -77 17 -83 17 -132 0z m160 -406 c-16
-154 -72 -583 -78 -600 -10 -28 6 -10 26 30 38 74 126 201 213 304 105 126
279 308 284 295 3 -9 -71 -224 -101 -292 -8 -19 -34 -80 -57 -135 -59 -141
-146 -312 -175 -347 -14 -16 -25 -33 -25 -37 0 -16 -123 -132 -164 -156 -73
-42 -84 -41 -92 2 -11 56 -12 71 -13 148 -2 68 -2 69 -18 45 -24 -37 -102
-104 -111 -96 -10 11 -11 268 -1 356 19 160 61 338 125 524 21 61 29 75 34 60
10 -26 19 -98 20 -159 l0 -50 26 55 c33 72 106 190 114 185 4 -2 0 -62 -7
-132z m733 31 c3 -25 4 -80 2 -122 -16 -268 -282 -639 -507 -707 -27 -8 -39
-30 224 430 202 352 257 445 267 445 4 0 10 -21 14 -46z m-1215 -692 c25 -53
26 -108 4 -156 -21 -43 -32 -42 -60 5 -16 27 -20 52 -20 119 0 47 4 94 8 105
8 19 9 19 28 -5 11 -14 29 -44 40 -68z m-286 -121 c31 -121 26 -300 -12 -391
l-14 -35 -21 34 c-30 46 -37 198 -14 307 19 93 36 157 41 152 2 -1 11 -32 20
-67z m-1211 -491 c32 -12 86 -39 120 -59 75 -44 249 -213 225 -218 -26 -6
-249 42 -534 114 -143 36 -270 68 -283 71 -13 2 -21 9 -19 15 5 15 126 74 188
92 78 22 226 14 303 -15z m1271 -73 c23 -6 88 -46 155 -95 175 -128 190 -136
258 -129 31 3 68 9 81 13 23 7 24 6 16 -32 -12 -65 -32 -103 -62 -116 -39 -16
-391 -17 -418 -1 -13 7 -28 35 -39 70 -21 67 -57 141 -96 198 -15 22 -35 55
-44 73 l-17 33 63 -2 c35 -1 81 -7 103 -12z m-235 -272 c23 -77 43 -145 44
-150 1 -6 17 -51 36 -99 54 -140 91 -157 432 -201 l46 -6 -26 -41 c-20 -29
-46 -50 -97 -75 -92 -46 -205 -122 -282 -189 -65 -57 -73 -62 -73 -41 0 21
-124 337 -164 418 -39 79 -38 70 -15 238 6 41 13 88 15 105 3 29 19 113 30
165 3 13 6 22 8 20 2 -2 23 -67 46 -144z m2707 -1376 c90 -95 240 -221 460
-387 111 -83 199 -153 195 -155 -15 -9 -91 -20 -162 -23 -280 -12 -469 147
-534 451 -16 73 -28 175 -21 175 2 0 30 -28 62 -61z m1013 -331 c1 -25 213
-325 362 -512 52 -65 101 -135 108 -155 33 -93 128 -206 264 -315 47 -38 86
-72 86 -76 0 -8 -96 -55 -150 -73 -70 -23 -223 -52 -338 -64 -51 -5 -67 -11
-85 -33 -41 -48 -179 -136 -324 -207 l-141 -69 57 -115 c59 -119 115 -217 189
-333 50 -79 55 -68 -63 -125 -137 -66 -322 -118 -480 -136 -33 -3 -73 -8 -90
-11 -46 -6 -371 -5 -434 2 -64 7 -167 21 -226 30 -153 24 -322 101 -460 209
-106 84 -213 193 -194 199 8 2 46 12 84 21 218 55 491 279 697 571 66 94 118
197 118 235 0 69 -84 112 -214 112 l-84 0 -12 87 c-12 81 -9 221 5 310 10 59
47 190 55 195 10 6 115 -53 184 -103 28 -20 121 -93 206 -162 350 -284 425
-322 740 -375 19 -3 120 -9 223 -12 l189 -6 -31 61 c-76 150 -167 419 -241
709 -27 108 -50 204 -50 212 0 15 49 -55 50 -71z m435 -160 c59 -65 103 -134
136 -213 31 -71 55 -162 46 -171 -10 -10 -88 40 -135 87 -75 75 -131 216 -132
327 0 39 2 42 19 33 10 -6 40 -34 66 -63z m750 -996 c45 -28 91 -62 103 -75
l23 -24 -118 -91 -118 -92 -34 68 c-67 134 -141 327 -141 368 0 14 155 -70
285 -154z"/>
<path d="M16810 20632 c-68 -52 -108 -103 -189 -235 l-42 -68 58 2 c175 7 275
87 259 208 -7 53 -32 121 -44 121 -4 0 -23 -13 -42 -28z"/>
<path d="M12872 26099 c-12 -5 -23 -13 -23 -19 -1 -5 -2 -16 -3 -22 -5 -30 15
-49 46 -46 37 4 53 26 45 60 -8 29 -32 39 -65 27z"/>
<path d="M10720 26080 c-69 -19 -187 -92 -354 -220 -97 -75 -97 -75 -64 -78
117 -13 358 73 452 161 78 73 56 161 -34 137z"/>
<path d="M9412 25826 c-10 -12 -160 -228 -332 -481 -172 -253 -333 -488 -357
-522 -24 -35 -43 -64 -43 -65 0 -2 20 -4 45 -6 148 -9 250 -111 259 -259 2
-35 13 -37 33 -6 10 15 52 75 94 133 89 124 284 405 503 724 141 207 156 232
156 271 0 128 -109 215 -287 228 -43 3 -55 1 -71 -17z"/>
<path d="M9835 25033 c9 -353 17 -657 20 -718 2 -38 6 -180 10 -315 7 -236 11
-334 15 -355 1 -11 16 32 56 165 29 96 27 91 47 185 48 223 54 508 17 707 -24
125 -76 275 -133 377 l-35 63 3 -109z"/>
<path d="M16028 24915 c-29 -29 -94 -152 -93 -175 1 -8 5 -58 10 -110 5 -52 9
-98 9 -102 3 -26 28 1 79 83 84 134 110 194 102 238 -13 76 -65 108 -107 66z"/>
<path d="M21184 24770 c-52 -21 -29 -109 28 -110 21 0 58 38 58 59 -1 39 -48
66 -86 51z"/>
<path d="M18353 24543 c-30 -46 11 -101 65 -86 12 3 25 18 31 34 21 61 -61
106 -96 52z"/>
<path d="M15295 24039 c-27 -3 -76 -12 -107 -18 l-58 -12 -1 -52 c0 -29 -2
-61 -4 -72 -2 -11 -6 -48 -8 -82 l-6 -62 45 4 c48 4 217 82 255 118 29 27 59
95 59 134 0 28 -4 33 -32 38 -58 10 -92 11 -143 4z"/>
<path d="M15989 23884 c0 -27 -2 -60 -4 -74 -5 -34 -14 -204 -15 -267 0 -55
-13 -71 -24 -29 -7 27 -101 152 -159 211 -22 22 -37 33 -34 25 2 -9 28 -97 56
-195 59 -208 81 -304 81 -360 0 -50 -37 -191 -95 -359 -25 -71 -45 -131 -45
-133 0 -13 101 72 150 125 64 69 137 204 146 267 9 70 10 316 2 430 -7 109
-46 396 -54 404 -2 2 -4 -18 -5 -45z"/>
<path d="M14898 23530 c-26 -27 -48 -54 -48 -59 0 -5 28 -24 63 -41 54 -28
193 -123 304 -207 l34 -26 -34 51 c-19 27 -39 64 -45 81 l-11 31 52 -26 c80
-41 200 -125 343 -241 50 -40 59 -41 41 -5 -8 15 -26 67 -42 117 -86 282 -215
375 -519 375 l-90 0 -48 -50z"/>
<path d="M15233 23002 c13 -40 22 -105 28 -217 5 -88 15 -189 24 -224 21 -88
87 -252 100 -248 17 6 62 126 80 212 16 80 21 222 9 305 -4 33 -14 52 -37 73
-47 42 -126 99 -178 129 l-45 27 19 -57z"/>
<path d="M22198 22954 c-91 -29 -185 -90 -241 -157 -41 -48 -43 -58 -11 -58
87 -2 253 91 359 200 l39 41 -34 0 c-19 -1 -70 -12 -112 -26z"/>
<path d="M20315 22717 c-117 -46 -229 -136 -305 -243 -37 -53 -92 -162 -88
-174 2 -6 21 -1 43 11 152 81 308 221 361 324 52 103 52 106 -11 82z"/>
<path d="M14990 22443 c-19 -99 -20 -252 -3 -325 16 -69 61 -169 79 -175 7 -2
20 18 30 44 28 71 25 224 -5 323 -23 75 -76 200 -84 200 -3 0 -11 -30 -17 -67z"/>
<path d="M12102 22475 c3 -5 27 -64 53 -130 26 -66 58 -145 72 -175 14 -30 34
-77 45 -104 41 -104 214 -442 298 -583 76 -128 190 -296 190 -281 0 7 -26 71
-46 115 -8 17 -14 34 -14 37 0 23 -188 439 -278 616 -110 214 -264 465 -310
502 -8 7 -13 9 -10 3z"/>
<path d="M11504 22060 c-30 -12 -64 -58 -64 -87 0 -41 27 -91 59 -108 17 -8
34 -14 38 -13 4 2 21 -18 38 -43 38 -58 136 -179 145 -179 7 0 5 9 -48 184
-22 70 -28 105 -22 121 29 76 -66 158 -146 125z"/>
<path d="M8910 21890 c-24 -24 -26 -57 -4 -88 33 -48 129 -12 121 45 -8 59
-76 84 -117 43z"/>
<path d="M10886 21289 c-54 -42 -19 -129 51 -129 36 0 73 38 73 75 0 12 -9 34
-21 49 -25 32 -66 34 -103 5z"/>
<path d="M19321 20773 c-41 -93 -74 -181 -74 -198 1 -16 13 -77 27 -134 15
-57 24 -106 22 -109 -3 -3 -43 13 -89 36 l-84 40 -23 -82 c-71 -261 -212 -446
-370 -487 l-48 -12 -20 -76 c-20 -74 -37 -154 -46 -216 -2 -16 -7 -48 -10 -70
-14 -94 -23 -189 -41 -445 -6 -93 -13 -173 -21 -265 -10 -109 -54 -261 -245
-850 l-111 -340 -67 -2 c-147 -3 -257 -21 -439 -69 -109 -28 -199 -70 -315
-147 -124 -83 -339 -277 -414 -374 l-25 -32 -1736 0 -1737 0 -160 45 c-187 53
-488 145 -699 214 -83 27 -152 48 -154 46 -6 -7 106 -136 192 -221 324 -322
770 -549 1261 -641 82 -15 237 -17 1808 -16 944 0 1729 1 1743 1 21 1 24 4 19
24 -17 57 -60 129 -103 171 l-47 46 0 112 c1 107 21 230 46 269 21 34 166 -76
244 -185 61 -87 64 -96 85 -276 8 -79 6 -456 -5 -525 -3 -22 -10 -74 -15 -115
-10 -75 -16 -114 -25 -160 -3 -14 -8 -43 -11 -65 -3 -22 -9 -59 -14 -83 -13
-72 -6 -123 19 -143 40 -32 98 -43 178 -32 84 12 116 32 176 111 39 50 147
229 147 243 0 3 -25 6 -56 7 -140 4 -249 84 -278 205 -7 31 4 34 51 16 113
-43 309 -38 428 12 21 9 96 13 240 14 223 2 271 9 358 58 91 51 102 135 83
642 -3 94 -8 181 -10 195 -3 14 -7 80 -11 148 -4 68 -9 134 -11 148 -5 28 5
45 68 112 202 215 539 662 703 932 307 504 426 879 420 1325 -5 362 -105 611
-318 790 -33 28 -80 68 -106 89 -84 71 -183 224 -263 408 -18 43 -35 78 -38
78 -3 0 -39 -75 -79 -167z m306 -711 c59 -32 104 -119 104 -202 1 -97 -36
-167 -146 -275 -59 -59 -157 -181 -222 -277 -97 -145 -265 -433 -347 -595 -20
-40 -38 -73 -40 -73 -2 0 5 48 15 106 52 287 190 692 346 1014 116 240 180
325 239 317 16 -2 40 -9 51 -15z m190 -638 c96 -272 -174 -911 -742 -1759
-188 -280 -219 -324 -227 -325 -10 0 74 235 162 455 114 286 273 645 434 980
209 434 341 695 350 692 5 -2 16 -21 23 -43z"/>
<path d="M21252 20669 c-36 -18 -45 -28 -55 -66 -9 -33 -22 -52 -57 -79 -56
-43 -172 -156 -166 -161 5 -5 116 34 207 73 36 15 79 26 98 25 80 -5 130 33
136 102 4 43 -31 104 -64 112 -14 3 -33 8 -41 10 -8 3 -34 -5 -58 -16z"/>
<path d="M12143 20190 c-89 -54 -84 -174 9 -216 51 -23 107 -7 143 40 77 101
-45 242 -152 176z"/>
<path d="M8040 20144 c144 -147 309 -243 452 -263 l57 -8 -17 29 c-43 73 -156
170 -257 221 -55 27 -202 67 -249 67 l-30 0 44 -46z"/>
<path d="M10230 19728 c0 -7 16 -40 36 -73 116 -194 260 -300 439 -324 30 -4
55 -6 55 -3 0 9 -95 116 -160 181 -119 117 -249 203 -342 225 -19 4 -28 2 -28
-6z"/>
<path d="M21370 18873 c-77 -10 -194 -53 -269 -101 -56 -35 -141 -109 -141
-123 0 -5 21 -6 48 -4 171 17 326 66 429 136 51 36 107 88 96 91 -17 3 -139 4
-163 1z"/>
<path d="M16535 18460 c-112 -34 -230 -91 -350 -170 -110 -71 -170 -123 -325
-279 -121 -122 -144 -141 -220 -178 -94 -45 -229 -94 -348 -124 -42 -11 -84
-22 -92 -25 -21 -8 67 -42 127 -49 26 -4 56 -9 66 -12 22 -6 253 -5 283 1 12
2 45 7 75 11 30 4 65 9 79 10 14 2 64 15 111 29 215 63 314 141 464 366 62 92
184 325 211 402 16 45 12 46 -81 18z"/>
<path d="M11168 18456 c-1 -2 -50 -6 -108 -10 -96 -5 -198 -18 -238 -30 -10
-3 -33 -7 -52 -10 -142 -21 -460 -158 -635 -273 -318 -210 -657 -578 -820
-890 l-27 -53 -137 -1 c-250 -1 -366 -11 -626 -53 -544 -87 -1099 -360 -1426
-701 -86 -90 -89 -95 -90 -144 0 -25 -3 -149 -6 -276 -10 -420 -9 -500 4 -498
56 11 274 18 558 18 l341 0 18 89 c9 48 21 95 26 105 5 9 19 39 31 66 75 164
237 324 440 433 142 76 387 152 574 177 22 3 51 8 65 10 199 34 512 23 743
-26 190 -40 467 -155 567 -236 8 -6 42 -32 75 -56 33 -25 88 -74 121 -109 l62
-64 120 62 c236 120 478 200 722 239 58 10 114 19 125 21 54 10 204 19 333 19
78 0 142 3 142 7 0 3 -26 42 -58 85 -110 147 -276 290 -440 376 -85 45 -252
119 -252 112 0 -2 -25 5 -56 15 -124 43 -305 78 -499 98 -86 9 -499 8 -575 -1
-30 -4 -77 -10 -105 -13 -27 -3 -58 -7 -67 -10 -15 -4 -14 3 8 53 240 544 672
952 1199 1131 255 87 465 120 742 118 95 -1 170 0 168 3 -19 18 -381 139 -430
143 -5 0 -21 4 -34 9 -13 5 -40 12 -60 15 -20 4 -40 7 -46 8 -5 2 -32 6 -60
10 -27 4 -61 10 -75 12 -14 2 -72 7 -130 10 -58 3 -110 7 -117 9 -6 2 -13 2
-15 1z"/>
<path d="M8755 18194 c-280 -37 -576 -137 -784 -266 l-54 -33 -85 28 c-89 30
-239 62 -338 73 -32 3 -65 7 -74 9 -20 4 -208 15 -327 20 l-91 3 -1 -368 -1
-369 23 5 c61 15 112 24 155 28 43 5 75 7 252 21 30 2 125 7 210 10 194 8 205
9 223 26 264 258 719 523 1128 659 87 29 245 77 279 85 88 20 110 25 140 30
59 10 57 11 -127 41 -69 12 -435 10 -528 -2z"/>
<path d="M20192 17989 c-156 -30 -326 -172 -466 -389 -82 -127 -270 -559 -252
-577 3 -3 27 7 53 22 209 121 482 220 683 249 19 3 51 8 70 11 104 15 339 21
435 10 146 -16 215 -29 315 -56 41 -11 82 -21 90 -23 8 -3 51 -18 96 -34 l81
-30 56 71 c65 84 228 252 307 318 178 149 382 253 579 295 83 18 86 25 15 37
-16 3 -40 7 -54 10 -88 20 -284 27 -395 14 -232 -26 -454 -132 -617 -294 l-57
-56 -30 24 c-16 13 -60 49 -98 80 -131 107 -321 223 -440 270 -118 47 -275 67
-371 48z"/>
<path d="M22769 16676 c-2 -2 -24 -7 -49 -10 -130 -17 -312 -96 -431 -186
-155 -117 -286 -277 -396 -484 l-21 -40 -84 -2 c-92 -2 -168 -20 -252 -60 -31
-15 -58 -25 -60 -23 -2 2 -18 35 -35 72 -114 241 -307 429 -509 494 -140 46
-374 35 -577 -27 -143 -44 -339 -151 -475 -259 -70 -55 -230 -218 -291 -296
-64 -81 -150 -207 -145 -212 2 -2 31 10 64 27 32 16 66 30 74 30 8 0 18 4 24
9 10 9 212 76 254 85 14 2 63 12 110 22 95 18 314 25 412 13 353 -46 697 -241
932 -528 l56 -69 88 24 c253 68 494 83 712 43 210 -39 423 -155 555 -302 l55
-62 0 873 c0 479 -1 872 -3 872 -2 0 -6 -2 -8 -4z"/>
<path d="M12730 16562 c0 -44 107 -324 179 -472 134 -272 346 -539 539 -680
l62 -45 0 -1202 0 -1203 -42 -1 c-82 -2 -144 -9 -268 -34 -200 -39 -338 -90
-502 -183 -256 -146 -488 -398 -615 -670 -25 -53 -46 -102 -46 -109 0 -6 -19
3 -41 21 -96 78 -260 129 -506 158 -136 15 -434 15 -530 -1 -308 -51 -580
-204 -805 -452 -37 -41 -79 -91 -94 -113 -53 -77 -131 -200 -131 -206 0 -4 44
15 98 41 175 85 383 153 551 179 36 6 77 13 91 15 129 24 512 23 634 -1 11 -2
50 -9 86 -15 36 -5 85 -15 110 -20 25 -6 53 -12 62 -14 55 -12 214 -58 283
-84 128 -46 162 -61 287 -121 l57 -28 38 47 c68 84 286 296 390 378 180 144
403 278 573 348 36 14 74 30 85 35 63 28 281 91 360 104 17 3 55 10 85 16 160
31 518 33 637 4 18 -5 23 -2 24 12 1 11 2 33 4 49 1 17 6 77 9 135 9 142 15
214 21 280 2 30 7 84 10 120 4 36 8 88 11 115 6 60 12 129 19 210 6 61 11 114
19 195 3 25 8 77 11 115 13 149 24 197 26 114 0 -24 2 -53 4 -64 2 -11 8 -83
15 -160 6 -77 13 -156 15 -175 2 -19 7 -73 10 -120 8 -126 15 -219 20 -275 2
-27 7 -86 10 -130 3 -44 8 -102 10 -130 2 -27 7 -86 10 -130 3 -44 8 -102 10
-130 2 -27 7 -97 10 -155 4 -58 8 -115 10 -127 2 -12 7 -73 10 -135 4 -62 9
-120 11 -128 1 -8 3 -29 3 -47 1 -29 11 -39 114 -109 145 -101 896 -642 917
-662 11 -10 -290 65 -395 99 -16 5 -109 32 -205 60 -96 28 -227 66 -290 85
-191 59 -280 84 -292 84 -6 0 -84 -55 -172 -122 -89 -67 -226 -171 -306 -231
-80 -61 -149 -114 -154 -119 -6 -4 499 -8 1122 -8 623 0 1132 4 1132 8 0 14
-214 293 -450 588 l-230 287 0 868 0 869 -81 41 c-166 83 -333 199 -494 343
-98 88 -234 227 -235 239 0 4 71 7 158 8 86 0 596 3 1132 6 l974 5 71 25 c38
14 114 48 168 75 l99 49 -19 -31 c-10 -17 -53 -69 -96 -115 l-78 -85 72 -102
c107 -152 505 -678 513 -678 2 0 0 1563 -3 1568 0 1 -18 -9 -39 -22 -63 -39
-151 -81 -272 -129 l-115 -45 -870 2 -870 1 -3 563 -2 562 107 0 c60 1 446 1
860 1 l752 0 43 51 c57 67 60 74 38 75 -23 2 -286 33 -320 38 -14 2 -50 6 -80
10 -30 3 -71 8 -90 10 -19 3 -53 7 -75 9 -22 3 -78 9 -125 15 -47 6 -164 20
-260 31 -96 11 -193 22 -215 25 -22 3 -193 23 -379 45 -187 22 -363 43 -390
46 -28 3 -75 9 -103 13 -29 4 -53 5 -53 1 0 -6 141 -187 198 -255 10 -11 30
-37 46 -57 l28 -38 -35 15 c-81 34 -393 178 -540 250 -87 42 -160 75 -162 73
-6 -6 -13 -58 -20 -148 -3 -47 -8 -92 -10 -100 -2 -8 -7 -53 -10 -100 -4 -47
-8 -92 -10 -100 -1 -8 -6 -49 -9 -90 -4 -41 -9 -91 -11 -110 -3 -19 -9 -84
-15 -145 -15 -154 -18 -186 -30 -305 -6 -58 -13 -130 -16 -160 -3 -30 -7 -71
-9 -90 -2 -19 -7 -64 -10 -100 -4 -36 -8 -76 -10 -90 -2 -14 -7 -65 -10 -115
-4 -49 -9 -92 -10 -95 -4 -7 -18 -170 -17 -192 0 -10 -3 -18 -9 -18 -5 0 -10
19 -10 43 -1 45 -3 65 -13 167 -11 113 -26 263 -31 315 -7 83 -16 168 -20 205
-2 19 -7 62 -10 95 -18 199 -44 472 -50 525 -2 19 -7 69 -10 110 -3 41 -8 91
-10 110 -3 19 -9 87 -15 150 -13 144 -21 214 -25 218 -2 2 -143 -86 -313 -196
l-310 -200 -63 36 c-186 104 -393 281 -569 482 -36 41 -69 80 -75 86 -27 30
-201 277 -222 315 -12 24 -23 38 -23 31z"/>
<path d="M18750 15858 c-23 -25 -70 -105 -70 -120 0 -14 95 41 126 74 23 23
26 32 18 46 -17 26 -49 26 -74 0z"/>
<path d="M18463 15801 c-23 -17 -67 -63 -97 -103 -54 -72 -133 -208 -122 -208
17 0 207 122 265 170 111 93 125 161 35 168 -31 2 -49 -4 -81 -27z"/>
<path d="M12766 15005 c-20 -15 -186 -84 -214 -88 -9 -1 -21 -5 -27 -8 -5 -4
-28 -10 -50 -14 -22 -5 -42 -9 -45 -10 -3 0 -21 -4 -40 -8 -19 -4 -46 -10 -60
-13 -50 -11 -227 -33 -325 -40 -188 -15 -736 -8 -965 11 -30 3 -93 7 -140 10
-152 9 -264 16 -310 20 -42 3 -171 12 -330 21 -116 6 -483 6 -565 -1 -284 -23
-547 -114 -775 -268 -142 -95 -301 -241 -390 -357 -19 -25 -37 -47 -40 -50 -3
-3 -18 -24 -34 -47 -16 -24 -31 -43 -33 -43 -2 0 -30 16 -61 37 -165 105 -328
180 -538 247 -28 9 -59 18 -70 20 -10 3 -64 13 -119 25 -55 11 -118 23 -140
26 -64 9 -437 14 -475 6 l-35 -7 1 -109 c7 -701 14 -1209 17 -1211 2 -2 45 5
97 16 52 11 133 23 180 27 152 13 460 7 555 -11 11 -2 43 -6 70 -10 78 -10
338 -66 357 -76 10 -6 23 -10 30 -10 17 0 191 -57 248 -81 25 -11 88 -41 140
-67 l95 -48 75 29 c90 34 304 94 369 103 25 3 49 8 53 10 28 17 367 25 468 11
222 -30 435 -119 594 -248 l85 -69 153 153 c150 150 267 244 371 300 29 15 61
34 73 42 59 38 312 126 408 141 21 3 48 8 60 10 33 7 197 34 241 40 53 7 172
38 266 68 79 25 237 93 254 109 9 8 -63 2 -120 -10 -11 -2 -112 -6 -225 -8
-353 -8 -553 -15 -600 -21 -127 -15 -396 -82 -495 -123 -73 -31 -228 -107
-268 -133 -39 -25 -50 -28 -62 -18 -8 7 -15 18 -15 25 0 20 -84 127 -145 186
-209 201 -577 323 -995 328 l-55 1 85 81 c194 185 414 292 755 368 97 21 116
25 215 40 61 9 86 12 220 26 30 3 66 8 80 10 14 2 59 7 100 10 41 3 98 8 125
10 28 2 86 7 130 10 44 3 103 8 130 10 28 3 82 7 120 10 199 14 384 31 435 41
14 2 43 7 65 10 76 11 290 64 380 95 119 40 311 134 408 199 88 59 242 201
270 249 19 33 13 39 -17 16z"/>
<path d="M18320 14815 c0 -2 39 -25 88 -51 233 -127 452 -312 576 -488 47 -67
116 -192 116 -211 0 -32 26 -35 106 -10 265 80 545 78 747 -7 127 -54 217
-124 306 -238 47 -59 120 -203 147 -290 9 -30 18 -56 19 -58 1 -1 40 7 86 18
98 25 301 35 369 19 25 -6 56 -13 69 -15 13 -3 58 -21 100 -41 192 -90 329
-313 368 -598 3 -22 6 -41 7 -41 0 -1 33 -5 71 -8 273 -26 470 -129 586 -308
78 -121 108 -246 105 -432 l-2 -121 116 -48 c95 -40 202 -95 299 -152 37 -22
122 -100 141 -129 11 -17 20 -26 21 -21 0 6 2 431 2 945 l2 935 -40 34 c-117
98 -340 203 -481 226 -22 3 -55 10 -74 14 -69 18 -148 24 -310 25 -148 1 -313
-8 -329 -18 -3 -2 -29 -7 -57 -10 l-52 -5 -13 47 c-95 343 -464 690 -885 831
-90 30 -116 37 -214 51 -271 40 -665 -56 -936 -227 l-51 -32 -64 60 c-134 124
-323 233 -504 289 -98 30 -197 50 -279 56 -39 3 -90 7 -113 9 -24 2 -43 2 -43
0z"/>
<path d="M15381 13712 c-22 -7 43 -199 85 -250 l19 -23 844 0 c464 0 845 2
847 3 3 3 -33 43 -170 190 l-72 76 -599 2 c-330 1 -678 2 -773 3 -94 1 -176 1
-181 -1z"/>
<path d="M18957 13374 c-1 -1 -54 -4 -117 -7 -63 -4 -126 -8 -140 -11 -58 -10
-170 -28 -172 -26 -2 1 -16 -3 -31 -9 -15 -6 -41 -13 -56 -16 -16 -3 -59 -14
-97 -26 -67 -20 -98 -35 -72 -36 50 -1 306 -89 438 -151 494 -233 822 -665
909 -1202 6 -36 14 -78 17 -95 10 -48 14 -396 5 -442 -6 -29 -5 -43 2 -43 6 0
47 11 91 24 45 14 92 27 106 29 14 3 55 12 93 21 69 16 75 17 192 35 124 19
138 20 240 28 128 10 534 10 645 0 139 -12 337 -35 375 -44 11 -2 56 -10 100
-17 44 -8 100 -19 124 -26 23 -6 45 -9 47 -7 3 2 -10 16 -28 29 -18 14 -44 35
-57 47 -13 11 -27 21 -30 21 -3 0 -19 12 -36 26 -48 41 -277 180 -413 251
-217 113 -520 237 -788 324 l-161 52 -12 116 c-13 136 -41 274 -77 386 -30 94
-75 198 -115 265 -103 173 -258 315 -432 394 -65 29 -160 62 -200 70 -15 3
-35 7 -45 10 -39 12 -89 17 -265 30 -20 1 -38 2 -40 0z"/>
<path d="M6864 12490 c-40 -16 -84 -83 -110 -170 -15 -47 -34 -93 -43 -102 -9
-9 -76 -32 -148 -50 l-133 -34 -39 46 c-21 25 -54 51 -72 57 -19 6 -94 32
-168 57 -73 25 -144 46 -158 46 -15 0 -39 -14 -60 -35 -32 -32 -34 -39 -29
-77 3 -24 13 -72 23 -107 16 -63 16 -64 -4 -81 -11 -9 -47 -22 -79 -29 -33 -7
-97 -21 -144 -33 -47 -11 -94 -22 -105 -24 -31 -6 -56 -11 -105 -23 -25 -5
-56 -12 -70 -15 -14 -2 -110 -23 -214 -45 -204 -44 -222 -48 -263 -56 -16 -3
-36 -8 -45 -11 -10 -3 -30 -8 -45 -10 -16 -3 -70 -14 -122 -25 -51 -12 -101
-22 -110 -24 -9 -1 -81 -17 -161 -35 -80 -17 -154 -34 -164 -36 -27 -5 -219
-45 -231 -48 -5 -1 -36 -8 -67 -15 -75 -16 -88 -29 -81 -83 6 -51 64 -166 105
-210 26 -28 32 -30 75 -24 55 7 44 5 223 45 74 16 146 32 160 35 14 2 198 43
410 91 212 47 396 89 410 91 128 25 464 106 475 115 5 5 -7 9 -30 9 -47 0 -42
7 11 16 21 3 57 10 79 15 65 14 66 14 49 -33 -9 -27 -12 -54 -7 -73 10 -43 8
-54 -27 -205 -18 -74 -33 -142 -35 -150 -2 -8 -21 -105 -44 -215 -22 -110 -42
-218 -45 -240 -8 -71 -17 -138 -33 -245 -8 -58 -16 -114 -18 -125 -1 -11 -8
-56 -14 -100 -19 -122 -19 -126 -26 -185 -3 -30 -8 -66 -10 -80 -2 -14 -6 -54
-10 -90 -4 -36 -8 -76 -10 -90 -2 -14 -6 -54 -10 -90 -4 -36 -8 -76 -10 -90
-2 -14 -7 -50 -10 -80 -10 -103 -17 -155 -20 -158 -1 -2 4 -28 12 -58 13 -52
12 -62 -7 -142 -12 -48 -24 -108 -27 -134 -5 -42 -3 -50 23 -76 33 -32 113
-59 262 -87 54 -10 121 36 149 103 13 32 12 142 -3 216 -22 110 -22 371 1 656
1 19 5 80 9 135 11 163 29 341 41 406 2 9 6 40 10 70 4 30 9 57 10 60 2 3 7
28 11 55 3 27 8 51 9 54 2 3 6 26 10 50 4 25 13 72 20 105 8 33 17 76 20 95 3
19 11 55 16 80 6 25 12 54 15 65 2 11 9 45 15 75 6 30 29 132 50 225 22 94 41
179 44 190 30 138 49 197 68 209 19 12 102 33 199 51 31 6 55 12 105 23 48 11
55 1 41 -53 -4 -16 -10 -46 -13 -65 -3 -19 -8 -42 -10 -50 -2 -8 -7 -31 -10
-50 -3 -19 -8 -42 -10 -50 -2 -8 -7 -28 -9 -45 -3 -16 -15 -77 -27 -135 -11
-58 -22 -116 -24 -130 -2 -14 -17 -99 -34 -190 -16 -91 -33 -185 -36 -210 -3
-25 -17 -115 -31 -200 -25 -154 -48 -309 -58 -385 -3 -22 -14 -103 -25 -180
-11 -77 -23 -161 -26 -188 -13 -94 18 -163 83 -188 13 -5 31 -22 40 -39 29
-52 100 -53 126 -1 8 15 30 91 49 167 29 116 136 418 192 538 8 17 34 81 59
141 59 147 163 375 171 375 2 0 2 -17 0 -37 -8 -94 -17 -188 -21 -207 -2 -11
-7 -57 -10 -101 -3 -44 -7 -82 -9 -85 -5 -8 -18 -160 -19 -236 -4 -134 30
-260 86 -325 60 -69 175 -112 303 -113 106 -1 141 17 224 120 35 43 69 80 75
82 6 1 25 -11 42 -27 75 -71 219 -124 314 -116 62 5 101 18 177 60 166 91 269
197 500 515 273 375 350 528 357 709 4 106 -41 164 -93 119 -40 -36 -46 -44
-135 -193 -86 -143 -245 -368 -388 -549 -44 -55 -84 -103 -87 -106 -3 -3 -20
-23 -36 -45 -107 -143 -285 -270 -409 -289 -21 -4 -42 -9 -47 -12 -14 -8 -49
16 -59 41 -5 13 -12 57 -16 97 -3 40 -8 76 -11 81 -2 4 2 9 9 11 7 2 51 16 98
30 67 20 96 35 137 71 126 110 375 502 464 728 11 29 27 66 34 82 24 55 55
161 60 204 5 58 -25 137 -75 194 -66 75 -114 80 -209 23 -32 -20 -64 -36 -70
-36 -6 0 -11 -4 -11 -9 0 -5 -9 -12 -20 -16 -31 -10 -117 -99 -227 -237 -269
-336 -368 -546 -408 -863 -11 -96 -13 -110 -20 -145 -15 -85 -91 -195 -178
-257 l-44 -32 -12 40 c-30 101 -33 306 -7 459 3 14 7 43 11 65 3 22 12 83 20
135 8 52 17 113 20 135 3 22 7 49 10 60 6 31 45 285 51 335 3 25 9 59 13 75 3
17 4 48 1 70 -5 38 -8 42 -80 78 -94 47 -143 56 -170 32 -11 -10 -20 -24 -20
-32 0 -17 -40 -78 -81 -123 -35 -39 -76 -97 -107 -150 -10 -19 -43 -75 -72
-125 -29 -49 -64 -110 -78 -135 -13 -25 -27 -47 -30 -50 -5 -6 5 153 13 190 6
32 23 125 30 170 3 19 8 46 10 60 15 74 19 94 31 163 3 17 10 52 15 77 13 56
15 65 24 117 7 46 38 93 61 93 18 0 18 -10 -2 -38 -8 -12 -13 -22 -11 -22 6 0
347 139 393 160 81 37 136 132 135 231 0 67 -22 116 -59 135 -14 7 -84 10
-187 9 -111 -1 -165 2 -166 9 -2 40 -10 71 -28 111 -16 36 -29 50 -63 65 -45
20 -108 25 -144 10z m1476 -1067 c-18 -59 -64 -151 -158 -313 -61 -106 -220
-325 -230 -316 -10 11 84 234 135 321 43 72 246 335 259 335 1 0 -1 -12 -6
-27z"/>
<path d="M17300 12303 c-210 -24 -450 -88 -647 -173 l-52 -22 -53 30 c-171 97
-399 138 -576 102 -83 -18 -90 -24 -40 -40 108 -36 365 -184 477 -275 138
-112 287 -273 329 -355 7 -14 21 -36 32 -50 l19 -25 38 23 c90 55 245 121 328
142 131 33 180 29 425 -33 262 -67 291 -71 455 -72 160 0 214 7 327 45 102 34
166 65 259 125 68 44 90 61 166 130 l44 40 -133 1 c-217 3 -220 3 -285 68
-164 163 -407 279 -693 332 -40 7 -368 13 -420 7z"/>
<path d="M14185 12118 c-225 -19 -472 -71 -622 -133 l-43 -17 0 -145 0 -144
-101 -212 c-55 -117 -128 -270 -162 -342 -34 -71 -85 -177 -113 -235 -28 -58
-50 -106 -49 -108 2 -2 30 16 64 40 84 59 140 99 678 472 260 180 475 331 477
334 6 11 14 74 21 177 3 50 8 108 10 130 2 22 7 75 10 117 l7 78 -44 -3 c-23
-1 -83 -5 -133 -9z"/>
<path d="M8107 9115 c-1 -2 -45 -5 -97 -9 -95 -7 -128 -10 -230 -21 -124 -13
-173 -21 -340 -52 -212 -39 -504 -129 -695 -216 -143 -64 -415 -212 -435 -236
-3 -4 -25 -19 -50 -35 -109 -70 -276 -211 -410 -345 -162 -162 -232 -246 -334
-401 -38 -58 -77 -116 -87 -131 -60 -90 -171 -336 -228 -506 -126 -378 -175
-887 -125 -1323 3 -25 7 -59 9 -76 24 -233 122 -573 233 -805 50 -105 133
-253 144 -257 4 -2 8 -8 8 -13 0 -8 35 -61 99 -149 119 -164 333 -383 521
-533 278 -222 548 -371 890 -488 183 -63 482 -134 649 -154 30 -4 63 -8 73
-10 19 -4 103 -13 183 -21 243 -22 609 -21 799 1 17 2 56 6 86 10 30 3 62 8
70 10 8 2 38 7 65 10 45 5 268 47 321 60 282 68 517 152 747 265 105 53 284
154 297 169 3 3 30 23 61 43 143 93 364 291 495 445 188 218 367 509 478 773
33 80 102 293 120 370 9 41 21 91 27 111 5 20 12 57 14 82 3 25 8 56 10 68 5
25 11 72 21 154 9 81 12 434 4 505 -5 36 -11 103 -15 150 -3 46 -8 87 -10 90
-1 3 -6 28 -9 55 -17 123 -66 326 -118 480 -144 430 -407 824 -744 1113 -170
146 -278 225 -460 334 -389 233 -869 398 -1319 452 -63 8 -135 16 -195 22 -50
5 -517 13 -523 9z m369 -275 c81 -19 250 -91 292 -125 153 -123 197 -170 284
-305 134 -205 221 -450 262 -735 2 -16 9 -59 15 -95 6 -36 13 -78 16 -95 3
-16 8 -46 11 -65 7 -38 9 -55 20 -145 4 -33 8 -69 9 -80 2 -11 6 -42 9 -70 3
-27 8 -65 10 -83 3 -18 7 -67 11 -110 3 -42 8 -99 10 -127 16 -182 20 -299 20
-605 0 -190 -4 -401 -8 -470 -11 -163 -11 -161 -33 -374 -2 -22 -9 -76 -15
-120 -6 -45 -12 -92 -14 -106 -2 -14 -9 -56 -15 -95 -7 -38 -14 -79 -15 -91
-9 -67 -73 -369 -97 -454 -100 -365 -314 -684 -543 -810 -22 -12 -44 -26 -50
-30 -16 -12 -160 -60 -217 -71 -29 -6 -89 -12 -133 -14 -189 -6 -346 37 -509
142 -278 179 -493 587 -571 1083 -22 147 -26 174 -30 217 -2 21 -6 61 -9 88
-8 68 -15 138 -21 210 -3 33 -7 83 -10 110 -3 28 -7 82 -10 120 -3 39 -7 90
-10 115 -2 25 -7 90 -11 145 -4 55 -8 116 -10 135 -22 243 -22 416 1 750 2 25
6 92 10 150 3 58 8 121 10 140 2 19 6 70 10 112 3 42 7 85 9 95 2 10 7 50 11
88 3 39 10 88 15 110 5 22 11 60 14 85 3 25 8 54 10 65 2 11 13 66 25 122 29
143 101 396 136 478 174 403 349 600 617 692 72 24 87 28 178 42 77 12 223 3
316 -19z"/>
<path d="M21417 9114 c-1 -1 -71 -5 -155 -8 -85 -4 -159 -9 -165 -11 -7 -2
-46 -6 -87 -10 -118 -10 -155 -15 -308 -41 -1102 -185 -1957 -821 -2347 -1744
-59 -140 -138 -394 -159 -515 -3 -16 -8 -41 -11 -55 -9 -48 -15 -85 -21 -125
-2 -22 -7 -53 -9 -70 -25 -159 -26 -639 -1 -771 2 -10 7 -39 10 -64 52 -341
156 -645 319 -925 40 -69 136 -215 147 -225 3 -3 17 -21 30 -40 13 -19 27 -37
30 -40 3 -3 28 -32 55 -65 119 -143 312 -321 484 -448 351 -259 759 -437 1242
-541 116 -25 143 -30 214 -41 23 -3 50 -7 61 -9 66 -13 289 -35 429 -43 229
-12 719 -5 829 12 11 2 53 6 91 10 68 6 92 9 165 19 19 3 58 8 85 11 71 9 308
53 385 71 36 9 76 18 90 20 78 15 424 114 555 159 88 31 242 88 280 104 22 10
72 30 110 45 39 15 104 44 145 65 128 64 115 -62 115 1148 0 573 -4 1045 -8
1049 -8 9 -2437 12 -2442 4 -9 -14 64 -143 147 -261 52 -74 100 -144 108 -155
8 -12 65 -93 126 -180 207 -296 222 -319 238 -374 14 -48 16 -122 16 -565 0
-280 -2 -524 -5 -542 -13 -101 -47 -173 -108 -236 -137 -138 -496 -198 -785
-132 -409 95 -774 525 -933 1100 -11 39 -22 77 -24 85 -16 56 -78 353 -91 435
-8 55 -17 111 -20 125 -10 59 -31 266 -44 435 -8 107 -5 754 4 845 3 30 8 84
11 120 3 36 7 83 10 105 2 22 7 67 10 100 4 33 8 74 10 90 2 17 12 84 20 150
13 97 36 229 60 345 32 157 110 380 190 545 55 112 82 160 147 259 78 117 233
275 341 346 135 89 317 157 474 176 73 9 215 9 303 1 71 -7 92 -10 150 -22 14
-3 35 -7 47 -9 12 -3 57 -14 100 -26 232 -65 467 -195 683 -376 363 -305 626
-665 814 -1112 31 -74 100 -182 116 -182 3 0 14 6 25 13 16 13 17 26 11 163
-3 82 -8 165 -10 184 -4 32 -9 100 -22 270 -2 36 -7 90 -10 120 -2 30 -7 84
-9 120 -3 36 -7 90 -10 120 -3 30 -7 82 -9 115 -10 128 -18 221 -21 255 -2 19
-4 90 -5 158 -2 128 -11 171 -45 210 -21 25 -66 50 -104 57 -12 2 -30 7 -39 9
-9 3 -37 8 -62 11 -25 3 -56 8 -70 10 -14 2 -45 6 -70 9 -25 3 -54 8 -65 10
-11 2 -45 7 -75 11 -30 4 -62 9 -71 10 -28 6 -81 14 -194 30 -154 22 -164 23
-220 30 -27 3 -63 7 -80 10 -16 2 -57 7 -90 10 -33 3 -73 8 -90 10 -16 2 -73
7 -125 11 -52 3 -102 8 -111 9 -51 10 -692 27 -702 19z"/>
<path d="M20 9014 c0 -15 63 -158 172 -394 248 -531 248 -532 266 -660 4 -30
7 -253 6 -495 -5 -826 -3 -1600 3 -1800 9 -294 9 -778 0 -870 -5 -44 -15 -125
-24 -180 -8 -55 -17 -113 -19 -130 -14 -106 -120 -463 -170 -575 -35 -76 -146
-295 -164 -319 -22 -32 -67 -158 -59 -166 7 -6 2909 -8 2915 -2 2 2 -5 21 -16
42 -11 22 -20 42 -20 46 0 4 -17 38 -38 76 -22 37 -55 98 -75 134 -19 36 -74
134 -121 219 -47 84 -86 155 -86 157 0 2 -20 38 -44 81 -100 178 -111 204
-124 297 -4 28 -7 415 -7 860 l0 810 305 0 c286 0 308 -1 356 -21 42 -17 223
-153 369 -276 11 -9 132 -107 270 -217 241 -194 378 -286 387 -258 6 20 3
1676 -4 1682 -12 12 -157 -70 -333 -190 -99 -67 -292 -198 -430 -291 l-250
-169 -330 0 -330 0 0 1170 c-1 644 1 1177 3 1185 3 13 69 15 525 15 518 -1
522 -1 568 -23 41 -20 124 -97 266 -248 26 -29 123 -130 214 -225 91 -96 177
-186 190 -200 217 -237 684 -709 701 -709 11 0 13 141 13 819 0 451 -3 823 -8
827 -12 12 -4877 11 -4877 -2z"/>
<path d="M11860 9021 c-27 -5 -34 -10 -32 -25 5 -28 80 -201 161 -370 39 -81
71 -150 71 -151 0 -2 16 -39 36 -82 100 -217 128 -285 149 -368 l24 -90 1
-1325 c0 -729 4 -1395 7 -1480 27 -659 5 -760 -283 -1325 -95 -187 -146 -297
-152 -333 -5 -29 -7 -54 -3 -55 14 -7 2801 -1 2807 6 4 4 0 31 -10 60 -20 56
-21 57 -196 437 -165 360 -186 407 -207 475 -17 57 -18 155 -18 2215 l0 2155
170 -1 c94 0 195 -3 225 -7 30 -4 69 -9 85 -12 116 -15 274 -64 380 -119 158
-81 282 -208 348 -358 29 -66 95 -286 101 -340 3 -20 9 -54 15 -75 25 -97 35
-414 18 -568 -16 -147 -67 -353 -122 -495 -80 -209 -162 -331 -281 -420 -155
-116 -326 -168 -579 -175 -72 -2 -131 -4 -132 -4 -9 -3 59 -150 252 -546 64
-132 150 -307 190 -390 40 -82 123 -253 185 -380 62 -126 141 -288 175 -360
68 -141 180 -370 382 -785 72 -146 141 -275 155 -287 13 -13 44 -26 69 -31 41
-7 2249 -8 2442 -1 66 2 87 7 87 17 0 8 -118 132 -263 275 -144 144 -280 282
-303 307 -109 121 -251 296 -411 505 -88 114 -195 270 -350 510 -71 110 -167
254 -213 320 -47 66 -109 162 -139 213 -83 141 -145 194 -276 235 -58 18 -78
21 -272 42 -17 2 -49 6 -70 9 -21 3 -58 8 -83 11 -52 7 -38 4 -280 45 -102 18
-203 34 -225 37 -81 10 -110 19 -113 35 -4 18 13 25 78 33 25 3 72 10 105 15
33 5 83 12 110 16 28 3 59 8 70 10 11 2 34 7 50 9 273 47 536 117 760 202 91
35 299 133 345 163 211 138 245 164 341 260 160 160 258 314 323 510 35 107
40 129 52 235 12 103 6 284 -11 345 -2 8 -6 28 -9 43 -7 38 -22 87 -54 172
-121 320 -393 569 -822 753 -189 81 -560 197 -582 182 -2 -1 -15 3 -29 9 -42
15 -284 54 -419 66 -106 10 -259 17 -455 20 -407 8 -3340 13 -3375 6z"/>
<path d="M24610 8943 c16 -43 83 -195 150 -338 190 -407 247 -536 259 -590 7
-35 12 -489 16 -1490 3 -792 7 -1550 8 -1685 2 -272 -1 -307 -42 -468 -37
-142 -58 -191 -228 -533 -123 -246 -183 -382 -183 -412 0 -9 545 -12 2578 -11
1417 1 2580 2 2583 3 3 0 6 7 6 14 0 18 14 145 18 165 1 9 6 46 10 82 4 36 9
74 10 85 2 11 6 47 10 80 6 60 8 74 20 170 11 86 14 108 21 170 3 33 8 67 9
76 2 9 6 52 10 95 4 43 9 81 10 84 2 3 6 37 10 75 4 39 9 78 10 87 2 9 7 48
11 85 3 37 8 75 9 83 2 8 6 44 10 80 4 36 8 75 10 88 2 13 7 53 10 90 5 56 4
64 -7 52 -7 -9 -35 -33 -63 -55 -46 -37 -85 -71 -170 -150 -18 -16 -68 -61
-110 -100 -43 -38 -83 -74 -89 -80 -6 -5 -56 -50 -111 -100 -119 -107 -100
-90 -215 -195 -125 -113 -127 -115 -211 -190 -68 -60 -177 -158 -189 -170 -3
-3 -45 -41 -95 -85 -87 -77 -160 -143 -194 -175 -44 -41 -94 -73 -147 -92 -58
-21 -74 -21 -664 -23 -333 -1 -626 0 -652 3 l-48 4 3 1251 2 1252 300 -1 c282
-2 303 -3 354 -23 58 -24 128 -77 566 -431 244 -197 427 -330 455 -330 3 0 6
383 6 850 0 468 -3 850 -8 850 -27 0 -148 -71 -322 -188 -111 -74 -289 -195
-396 -267 -107 -72 -216 -147 -243 -165 l-47 -34 -335 -2 -335 -1 2 1170 3
1171 560 0 560 0 61 -28 c62 -28 95 -60 395 -377 24 -26 112 -117 194 -204 83
-87 167 -177 189 -199 317 -334 563 -583 592 -599 12 -7 14 109 14 823 l0 830
-2484 0 -2485 0 29 -77z"/>
<path d="M7688 1705 c-2 -1 -23 -5 -48 -8 -25 -3 -67 -11 -94 -17 -45 -10 -68
-20 -153 -64 -43 -23 -116 -105 -142 -162 -46 -97 -51 -230 -13 -318 25 -54
99 -128 159 -156 44 -20 137 -47 318 -89 111 -26 187 -62 206 -97 8 -15 14
-49 13 -76 -1 -62 -39 -112 -109 -141 -72 -29 -241 -32 -350 -6 -44 10 -87 23
-95 28 -31 17 -107 7 -134 -18 -52 -49 -52 -139 1 -181 35 -28 141 -58 238
-69 83 -9 301 -7 345 3 216 49 339 160 376 337 11 53 4 161 -13 210 -25 72
-90 142 -166 177 -60 28 -184 65 -257 77 -102 17 -222 60 -250 90 -30 32 -37
102 -16 146 44 92 219 125 400 77 118 -32 177 -23 209 32 36 61 18 133 -41
164 -50 26 -151 47 -250 52 -53 3 -105 7 -114 8 -9 2 -18 3 -20 1z"/>
<path d="M17158 1706 c-1 -2 -30 -6 -63 -10 -114 -11 -168 -29 -250 -81 -128
-82 -187 -202 -180 -365 3 -77 27 -138 76 -191 69 -74 126 -98 345 -149 238
-54 284 -79 299 -162 10 -52 -22 -120 -73 -152 -82 -51 -248 -60 -397 -19
-126 34 -186 35 -219 4 -56 -53 -52 -147 9 -187 30 -20 131 -49 207 -60 67
-10 309 -10 368 1 178 30 335 156 365 294 3 12 7 31 10 44 17 72 4 180 -31
248 -48 96 -137 149 -322 194 -207 50 -237 58 -277 76 -55 24 -76 50 -82 102
-14 122 94 187 287 174 47 -3 114 -15 150 -25 36 -10 79 -17 95 -15 115 16
147 165 47 217 -48 25 -149 46 -244 52 -51 3 -98 7 -105 9 -6 2 -13 2 -15 1z"/>
<path d="M20535 1702 c-91 -8 -168 -27 -230 -57 -130 -64 -190 -142 -231 -299
-12 -48 -16 -116 -16 -311 0 -137 2 -272 6 -300 36 -271 224 -420 525 -414
169 3 293 49 382 140 49 50 101 147 113 209 3 19 9 46 11 60 10 44 7 533 -4
585 -37 187 -146 311 -322 365 -41 12 -188 26 -234 22z m148 -248 c57 -19 111
-77 128 -136 9 -30 13 -127 12 -313 0 -252 -2 -274 -22 -325 -36 -92 -111
-131 -241 -126 -102 4 -159 36 -199 111 l-26 50 0 295 c0 289 0 296 23 342 39
78 111 117 218 118 33 0 81 -7 107 -16z"/>
<path d="M8911 1683 c-63 -31 -62 -19 -59 -688 l3 -605 32 -31 c27 -28 39 -32
87 -33 49 -1 59 2 86 29 17 17 33 42 36 55 3 14 5 182 5 374 0 288 2 346 13
330 7 -10 56 -102 109 -204 52 -102 109 -211 125 -244 51 -97 86 -124 158
-121 82 4 87 10 319 460 31 61 60 113 64 117 3 4 7 -153 7 -350 0 -330 1 -359
19 -389 21 -36 55 -55 105 -58 47 -3 106 30 120 68 6 20 10 236 10 619 0 517
-2 594 -16 623 -28 59 -118 83 -188 50 -37 -18 -30 -8 -141 -215 -48 -91 -100
-187 -115 -215 -15 -27 -52 -97 -83 -155 -94 -178 -101 -190 -107 -190 -3 0
-18 24 -33 53 -15 28 -47 88 -70 132 -24 44 -71 134 -106 200 -185 350 -198
371 -237 390 -42 20 -100 19 -143 -2z"/>
<path d="M11200 1687 c-136 -31 -257 -122 -308 -230 -45 -96 -54 -166 -54
-437 0 -140 3 -270 6 -287 3 -18 8 -47 11 -63 3 -17 17 -56 30 -87 76 -171
233 -260 462 -261 64 -1 137 5 172 14 189 44 317 177 351 364 13 70 17 526 6
595 -34 205 -146 332 -341 388 -64 18 -262 20 -335 4z m258 -232 c53 -18 80
-38 106 -77 37 -56 43 -114 41 -388 -1 -243 -3 -269 -22 -310 -21 -47 -68 -95
-112 -112 -50 -20 -168 -19 -222 2 -61 23 -91 53 -115 117 -17 42 -19 79 -19
318 0 295 6 340 54 394 58 64 190 90 289 56z"/>
<path d="M12644 1691 c-35 -15 -74 -70 -75 -104 0 -18 0 -287 0 -599 -1 -614
-2 -601 54 -642 39 -29 125 -29 164 0 51 38 56 61 56 263 l0 186 65 67 65 67
17 -22 c45 -57 176 -258 241 -369 106 -182 109 -186 156 -204 97 -38 205 36
190 129 -9 56 -218 397 -362 592 l-54 73 32 35 c324 347 316 338 333 370 8 15
13 40 10 55 -2 15 -5 30 -5 34 -2 15 -49 58 -75 68 -72 27 -127 6 -194 -74
-23 -28 -62 -73 -87 -101 -24 -27 -104 -120 -177 -207 -73 -86 -138 -158 -144
-161 -8 -4 -11 57 -11 206 0 117 -3 228 -7 248 -10 56 -55 92 -118 96 -29 1
-62 -1 -74 -6z"/>
<path d="M18375 1691 c-11 -5 -31 -21 -45 -36 l-25 -27 -3 -604 c-3 -667 -5
-644 60 -684 38 -23 114 -22 151 3 58 38 60 48 61 306 l0 237 258 0 c142 0
259 -2 259 -5 1 -3 2 -111 3 -238 2 -216 3 -235 22 -260 44 -61 139 -79 200
-38 56 36 55 33 55 588 0 282 0 551 0 600 -1 85 -2 88 -34 123 -28 31 -42 37
-84 41 -63 6 -111 -15 -138 -60 -18 -29 -19 -53 -20 -277 l0 -245 -258 -2
c-194 -2 -257 1 -259 10 0 7 -2 111 -3 232 -2 121 -3 230 -4 243 -1 12 -16 39
-34 59 -30 32 -40 36 -88 39 -30 2 -63 0 -74 -5z"/>
<path d="M14279 1679 c-44 -7 -73 -25 -93 -59 -13 -24 -15 -96 -16 -602 0
-394 3 -584 11 -606 6 -18 26 -41 46 -54 35 -21 42 -22 398 -21 330 0 364 1
392 18 93 55 77 186 -26 215 -20 5 -151 10 -291 10 l-256 0 0 155 c0 101 4
155 11 156 5 0 111 2 235 3 203 1 228 3 257 21 30 18 63 67 63 95 0 32 -36 82
-71 100 -35 18 -60 20 -267 20 l-229 0 1 155 0 155 41 0 c22 1 143 2 268 3
l229 2 34 37 c58 64 45 146 -30 185 -27 14 -76 17 -352 17 -176 1 -336 -1
-355 -5z"/>
<path d="M21864 1675 c-17 -7 -42 -28 -54 -46 l-24 -32 0 -594 c1 -577 1 -594
20 -621 61 -82 195 -77 240 9 11 22 14 74 14 236 l0 209 123 0 c172 2 235 6
287 19 146 38 227 111 279 250 16 42 19 209 5 276 -32 159 -140 260 -313 293
-95 18 -535 19 -577 1z m538 -253 c69 -30 83 -58 83 -167 -1 -160 -39 -185
-274 -185 l-149 0 0 183 c0 100 2 185 4 188 2 3 68 5 146 4 120 -2 151 -5 190
-23z"/>
</g>
</svg>
